# Created by FreeCAD <http://www.freecadweb.org>
v 0.200000 0.000000 0.450000
v 0.313155 0.000000 0.280268
v 0.259617 0.175114 0.169732
v 0.061803 0.190211 0.450000
v 0.096770 0.297828 0.280268
v 0.061803 -0.190211 0.450000
v 0.096770 -0.297828 0.280268
v 0.246769 -0.192797 0.169732
v -0.161803 -0.117557 0.450000
v -0.161803 0.117557 0.450000
v -0.086317 0.301024 0.169732
v -0.253348 0.184068 0.280268
v -0.055127 0.192252 -0.000000
v 0.165808 0.111839 0.000000
v 0.157602 -0.123132 -0.000000
v -0.253348 -0.184068 0.280268
v -0.107105 -0.294269 0.169732
v -0.068404 -0.187939 -0.000000
v -0.312964 0.010929 0.169732
v -0.199878 0.006980 -0.000000
vn 0.712053 0.517337 0.474702
vn 0.712053 0.517337 0.474702
vn 0.712053 0.517337 0.474702
vn 0.712053 -0.517337 0.474702
vn 0.712053 -0.517337 0.474702
vn 0.712053 -0.517337 0.474702
vn 0.000000 0.000000 1.000000
vn 0.000000 -0.000000 1.000000
vn 0.000000 0.000000 1.000000
vn -0.271980 0.837069 0.474702
vn -0.271980 0.837069 0.474702
vn -0.271980 0.837069 0.474702
vn 0.301028 0.827067 -0.474702
vn 0.301028 0.827067 -0.474702
vn 0.301028 0.827067 -0.474702
vn 0.879610 -0.030717 -0.474702
vn 0.879610 -0.030717 -0.474702
vn 0.879610 -0.030717 -0.474702
vn -0.271980 -0.837069 0.474702
vn -0.271980 -0.837069 0.474702
vn -0.271980 -0.837069 0.474702
vn 0.242601 -0.846051 -0.474702
vn 0.242601 -0.846051 -0.474702
vn 0.242601 -0.846051 -0.474702
vn -0.880146 -0.000000 0.474702
vn -0.880146 0.000000 0.474702
vn -0.880146 0.000000 0.474702
vn -0.693565 0.541872 -0.474702
vn -0.693565 0.541872 -0.474702
vn -0.693565 0.541872 -0.474702
vn 0.000000 0.000000 -1.000000
vn 0.000000 0.000000 -1.000000
vn 0.000000 -0.000000 -1.000000
vn -0.729674 -0.492172 -0.474702
vn -0.729675 -0.492172 -0.474702
vn -0.729674 -0.492172 -0.474702
f 1//1 2//1 3//1
f 4//2 3//2 5//2
f 4//3 1//3 3//3
f 6//4 7//4 8//4
f 1//5 8//5 2//5
f 1//6 6//6 8//6
f 1//7 4//7 6//7
f 6//8 4//8 9//8
f 9//9 4//9 10//9
f 4//10 5//10 11//10
f 10//11 11//11 12//11
f 10//12 4//12 11//12
f 13//13 11//13 5//13
f 14//14 5//14 3//14
f 14//15 13//15 5//15
f 14//16 3//16 2//16
f 15//17 2//17 8//17
f 15//18 14//18 2//18
f 9//19 16//19 17//19
f 6//20 17//20 7//20
f 6//21 9//21 17//21
f 15//22 8//22 7//22
f 18//23 7//23 17//23
f 18//24 15//24 7//24
f 10//25 12//25 19//25
f 9//26 19//26 16//26
f 9//27 10//27 19//27
f 20//28 19//28 12//28
f 13//29 12//29 11//29
f 13//30 20//30 12//30
f 18//31 20//31 15//31
f 15//32 20//32 14//32
f 14//33 20//33 13//33
f 18//34 17//34 16//34
f 20//35 16//35 19//35
f 20//36 18//36 16//36
